{"asset":{"generator":"3D Builder","version":"2.0"},"scene":0,"scenes":[{"nodes":[0,1,2]}],"nodes":[{"mesh":0,"matrix":[10.631155967712402,0,0,0,0,-1.2673325500145438E-6,-10.631155014038086,0,0,10.631155014038086,-1.2673325500145438E-6,0,-3.5396389819197793E-8,1.8926345213277074E-10,1.5710367051724461E-7,1]},{"mesh":1,"matrix":[10.631155967712402,0,0,0,0,-1.2673325500145438E-6,-10.631155014038086,0,0,10.631155014038086,-1.2673325500145438E-6,0,-3.5396389819197793E-8,1.8926345213277074E-10,1.5710367051724461E-7,1]},{"mesh":2,"matrix":[10.631155967712402,0,0,0,0,-1.2673325500145438E-6,-10.631155014038086,0,0,10.631155014038086,-1.2673325500145438E-6,0,-3.5396389819197793E-8,1.8926345213277074E-10,1.5710367051724461E-7,1]}],"meshes":[{"primitives":[{"attributes":{"POSITION":0},"mode":4,"indices":39,"material":0},{"attributes":{"POSITION":1,"TEXCOORD_0":20},"mode":4,"indices":40,"material":1},{"attributes":{"POSITION":2,"TEXCOORD_0":21},"mode":4,"indices":41,"material":2},{"attributes":{"POSITION":3,"TEXCOORD_0":22},"mode":4,"indices":42,"material":1},{"attributes":{"POSITION":4,"TEXCOORD_0":23},"mode":4,"indices":43,"material":1},{"attributes":{"POSITION":5,"TEXCOORD_0":24},"mode":4,"indices":44,"material":1},{"attributes":{"POSITION":6,"TEXCOORD_0":25},"mode":4,"indices":45,"material":1},{"attributes":{"POSITION":7,"TEXCOORD_0":26},"mode":4,"indices":46,"material":1},{"attributes":{"POSITION":8,"TEXCOORD_0":27},"mode":4,"indices":47,"material":1},{"attributes":{"POSITION":9,"TEXCOORD_0":28},"mode":4,"indices":48,"material":1},{"attributes":{"POSITION":10,"TEXCOORD_0":29},"mode":4,"indices":49,"material":3},{"attributes":{"POSITION":11,"TEXCOORD_0":30},"mode":4,"indices":50,"material":3},{"attributes":{"POSITION":12,"TEXCOORD_0":31},"mode":4,"indices":51,"material":3},{"attributes":{"POSITION":13,"TEXCOORD_0":32},"mode":4,"indices":52,"material":3},{"attributes":{"POSITION":14,"TEXCOORD_0":33},"mode":4,"indices":53,"material":1},{"attributes":{"POSITION":15,"TEXCOORD_0":34},"mode":4,"indices":54,"material":1},{"attributes":{"POSITION":16,"TEXCOORD_0":35},"mode":4,"indices":55,"material":1},{"attributes":{"POSITION":17,"TEXCOORD_0":36},"mode":4,"indices":56,"material":1},{"attributes":{"POSITION":18,"TEXCOORD_0":37},"mode":4,"indices":57,"material":1},{"attributes":{"POSITION":19,"TEXCOORD_0":38},"mode":4,"indices":58,"material":1}]},{"primitives":[{"attributes":{"POSITION":59,"TEXCOORD_0":60},"mode":4,"indices":61,"material":3}]},{"primitives":[{"attributes":{"POSITION":62,"TEXCOORD_0":63},"mode":4,"indices":64,"material":3}]}],"materials":[{"name":"wire_177028149","pbrMetallicRoughness":{"baseColorFactor":[0.43963244557380676,0.011611582711338997,0.30052831768989563,1],"metallicFactor":0,"roughnessFactor":1},"alphaMode":"OPAQUE"},{"pbrMetallicRoughness":{"baseColorFactor":[1,1,1,1],"metallicFactor":0,"roughnessFactor":1,"baseColorTexture":{"index":0,"texCoord":0}},"alphaMode":"OPAQUE"},{"pbrMetallicRoughness":{"baseColorFactor":[1,1,1,1],"metallicFactor":0,"roughnessFactor":1,"baseColorTexture":{"index":1,"texCoord":0}},"alphaMode":"OPAQUE"},{"pbrMetallicRoughness":{"baseColorFactor":[1,1,1,1],"metallicFactor":0,"roughnessFactor":1,"baseColorTexture":{"index":2,"texCoord":0}},"alphaMode":"OPAQUE"}],"textures":[{"source":0,"sampler":0},{"source":1,"sampler":0},{"source":2,"sampler":0}],"images":[{"uri":"texture_0"},{"uri":"texture_1"},{"uri":"texture_2"}],"samplers":[{"magFilter":9729,"wrapS":10497,"wrapT":10497}],"accessors":[{"bufferView":0,"byteOffset":0,"count":8050,"componentType":5126,"type":"VEC3","min":[-0.034812994301319122,-0.034774977713823318,0.046027988195419312],"max":[0.034609004855155945,0.0247269906103611,0.046821996569633484]},{"bufferView":0,"byteOffset":96600,"count":21246,"componentType":5126,"type":"VEC3","min":[-0.041464995592832565,-0.033856969326734543,0.046337995678186417],"max":[0.041485000401735306,0.033916998654603958,0.093331940472126007]},{"bufferView":0,"byteOffset":351552,"count":57336,"componentType":5126,"type":"VEC3","min":[-0.041218996047973633,-0.033792976289987564,0.046547990292310715],"max":[0.041240997612476349,0.033671002835035324,0.095741927623748779]},{"bufferView":0,"byteOffset":1039584,"count":40842,"componentType":5126,"type":"VEC3","min":[-0.041906993836164474,-0.033404972404241562,0.046411991119384766],"max":[0.041906997561454773,0.035878997296094894,0.093081936240196228]},{"bufferView":0,"byteOffset":1529688,"count":11419,"componentType":5126,"type":"VEC3","min":[-0.03995499387383461,-0.033608976751565933,0.045875988900661469],"max":[0.040200997143983841,0.031798984855413437,0.0478159636259079]},{"bufferView":0,"byteOffset":1666716,"count":7754,"componentType":5126,"type":"VEC3","min":[-0.040204994380474091,-0.033184971660375595,0.046229992061853409],"max":[0.040371004492044449,0.031936988234519958,0.048059962689876556]},{"bufferView":0,"byteOffset":1759764,"count":18952,"componentType":5126,"type":"VEC3","min":[-0.035150997340679169,-0.034834962338209152,0.046195987612009048],"max":[0.035132996737957,0.024950988590717316,0.056867983192205429]},{"bufferView":0,"byteOffset":1987188,"count":20467,"componentType":5126,"type":"VEC3","min":[-0.034698996692895889,-0.035282965749502182,0.056357990950345993],"max":[0.034685000777244568,0.021512998268008232,0.059331972151994705]},{"bufferView":0,"byteOffset":2232792,"count":6763,"componentType":5126,"type":"VEC3","min":[-0.034846995025873184,-0.035878967493772507,0.046469993889331818],"max":[0.034754995256662369,-0.034466970711946487,0.0565979890525341]},{"bufferView":0,"byteOffset":2313948,"count":5317,"componentType":5126,"type":"VEC3","min":[-0.034630995243787766,-0.035236973315477371,0.04570399597287178],"max":[0.034441001713275909,0.02448699064552784,0.04671797901391983]},{"bufferView":0,"byteOffset":2377752,"count":133,"componentType":5126,"type":"VEC3","min":[0.0239850003272295,0.016964994370937347,-1.196653887092225E-11],"max":[0.03430500254034996,0.03328096866607666,0.042829979211091995]},{"bufferView":0,"byteOffset":2379348,"count":146,"componentType":5126,"type":"VEC3","min":[-0.03321099653840065,0.016964994370937347,-1.196653887092225E-11],"max":[-0.022890999913215637,0.03328096866607666,0.042829979211091995]},{"bufferView":0,"byteOffset":2381100,"count":4684,"componentType":5126,"type":"VEC3","min":[-0.040330994874238968,-0.034794975072145462,0.042339973151683807],"max":[0.041427001357078552,0.031582988798618317,0.046137992292642593]},{"bufferView":0,"byteOffset":2437308,"count":3097,"componentType":5126,"type":"VEC3","min":[-0.038360994309186935,-0.0325789637863636,0.0428299754858017],"max":[0.039062999188899994,0.029324987903237343,0.045821994543075562]},{"bufferView":0,"byteOffset":2474472,"count":241,"componentType":5126,"type":"VEC3","min":[-0.021000999957323074,0.018713004887104034,0.070645958185195923],"max":[-0.019065000116825104,0.020087005570530891,0.072911955416202545]},{"bufferView":0,"byteOffset":2477364,"count":11883,"componentType":5126,"type":"VEC3","min":[-0.034912999719381332,-0.035390976816415787,0.046251997351646423],"max":[0.034873001277446747,-0.03439297154545784,0.056811988353729248]},{"bufferView":0,"byteOffset":2619960,"count":6937,"componentType":5126,"type":"VEC3","min":[-0.034882992506027222,-0.034974966198205948,0.056195985525846481],"max":[0.034894999116659164,0.021528996527194977,0.057069979608058929]},{"bufferView":0,"byteOffset":2703204,"count":277,"componentType":5126,"type":"VEC3","min":[0.005902998149394989,0.021965000778436661,0.074057959020137787],"max":[0.0084130000323057175,0.022643003612756729,0.076747946441173553]},{"bufferView":0,"byteOffset":2706528,"count":242,"componentType":5126,"type":"VEC3","min":[-0.0074930000118911266,0.022021001204848289,0.074061952531337738],"max":[-0.0049790008924901485,0.022651003673672676,0.076765954494476318]},{"bufferView":0,"byteOffset":2709432,"count":268,"componentType":5126,"type":"VEC3","min":[0.022258995100855827,0.016291007399559021,0.070477962493896484],"max":[0.024104995653033257,0.017961004748940468,0.07295595109462738]},{"bufferView":1,"byteOffset":0,"count":21246,"componentType":5126,"type":"VEC2"},{"bufferView":1,"byteOffset":169968,"count":57336,"componentType":5126,"type":"VEC2"},{"bufferView":1,"byteOffset":628656,"count":40842,"componentType":5126,"type":"VEC2"},{"bufferView":1,"byteOffset":955392,"count":11419,"componentType":5126,"type":"VEC2"},{"bufferView":1,"byteOffset":1046744,"count":7754,"componentType":5126,"type":"VEC2"},{"bufferView":1,"byteOffset":1108776,"count":18952,"componentType":5126,"type":"VEC2"},{"bufferView":1,"byteOffset":1260392,"count":20467,"componentType":5126,"type":"VEC2"},{"bufferView":1,"byteOffset":1424128,"count":6763,"componentType":5126,"type":"VEC2"},{"bufferView":1,"byteOffset":1478232,"count":5317,"componentType":5126,"type":"VEC2"},{"bufferView":1,"byteOffset":1520768,"count":133,"componentType":5126,"type":"VEC2"},{"bufferView":1,"byteOffset":1521832,"count":146,"componentType":5126,"type":"VEC2"},{"bufferView":1,"byteOffset":1523000,"count":4684,"componentType":5126,"type":"VEC2"},{"bufferView":1,"byteOffset":1560472,"count":3097,"componentType":5126,"type":"VEC2"},{"bufferView":1,"byteOffset":1585248,"count":241,"componentType":5126,"type":"VEC2"},{"bufferView":1,"byteOffset":1587176,"count":11883,"componentType":5126,"type":"VEC2"},{"bufferView":1,"byteOffset":1682240,"count":6937,"componentType":5126,"type":"VEC2"},{"bufferView":1,"byteOffset":1737736,"count":277,"componentType":5126,"type":"VEC2"},{"bufferView":1,"byteOffset":1739952,"count":242,"componentType":5126,"type":"VEC2"},{"bufferView":1,"byteOffset":1741888,"count":268,"componentType":5126,"type":"VEC2"},{"bufferView":2,"byteOffset":0,"count":38247,"componentType":5125,"type":"SCALAR"},{"bufferView":2,"byteOffset":152988,"count":84618,"componentType":5125,"type":"SCALAR"},{"bufferView":2,"byteOffset":491460,"count":303180,"componentType":5125,"type":"SCALAR"},{"bufferView":2,"byteOffset":1704180,"count":229599,"componentType":5125,"type":"SCALAR"},{"bufferView":2,"byteOffset":2622576,"count":49149,"componentType":5125,"type":"SCALAR"},{"bufferView":2,"byteOffset":2819172,"count":33093,"componentType":5125,"type":"SCALAR"},{"bufferView":2,"byteOffset":2951544,"count":70185,"componentType":5125,"type":"SCALAR"},{"bufferView":2,"byteOffset":3232284,"count":108324,"componentType":5125,"type":"SCALAR"},{"bufferView":2,"byteOffset":3665580,"count":29004,"componentType":5125,"type":"SCALAR"},{"bufferView":2,"byteOffset":3781596,"count":17067,"componentType":5125,"type":"SCALAR"},{"bufferView":2,"byteOffset":3849864,"count":312,"componentType":5125,"type":"SCALAR"},{"bufferView":2,"byteOffset":3851112,"count":324,"componentType":5125,"type":"SCALAR"},{"bufferView":2,"byteOffset":3852408,"count":16383,"componentType":5125,"type":"SCALAR"},{"bufferView":2,"byteOffset":3917940,"count":7587,"componentType":5125,"type":"SCALAR"},{"bufferView":2,"byteOffset":3948288,"count":996,"componentType":5125,"type":"SCALAR"},{"bufferView":2,"byteOffset":3952272,"count":49878,"componentType":5125,"type":"SCALAR"},{"bufferView":2,"byteOffset":4151784,"count":26136,"componentType":5125,"type":"SCALAR"},{"bufferView":2,"byteOffset":4256328,"count":960,"componentType":5125,"type":"SCALAR"},{"bufferView":2,"byteOffset":4260168,"count":942,"componentType":5125,"type":"SCALAR"},{"bufferView":2,"byteOffset":4263936,"count":966,"componentType":5125,"type":"SCALAR"},{"bufferView":3,"byteOffset":0,"count":35,"componentType":5126,"type":"VEC3","min":[0.030191002413630486,-0.02943897619843483,2.1240021297330713E-8],"max":[0.037737000733613968,-0.024438977241516113,0.0423399917781353]},{"bufferView":4,"byteOffset":0,"count":35,"componentType":5126,"type":"VEC2"},{"bufferView":5,"byteOffset":0,"count":108,"componentType":5125,"type":"SCALAR"},{"bufferView":6,"byteOffset":0,"count":48,"componentType":5126,"type":"VEC3","min":[-0.036640997976064682,-0.02943897619843483,2.1240021297330713E-8],"max":[-0.029096998274326324,-0.024438977241516113,0.0423399917781353]},{"bufferView":7,"byteOffset":0,"count":48,"componentType":5126,"type":"VEC2"},{"bufferView":8,"byteOffset":0,"count":108,"componentType":5125,"type":"SCALAR"}],"bufferViews":[{"buffer":0,"byteOffset":0,"byteLength":2712648,"byteStride":12,"target":34962},{"buffer":0,"byteOffset":2712648,"byteLength":1744032,"byteStride":8,"target":34962},{"buffer":0,"byteOffset":4456680,"byteLength":4267800,"target":34963},{"buffer":0,"byteOffset":8724480,"byteLength":420,"byteStride":12,"target":34962},{"buffer":0,"byteOffset":8724900,"byteLength":280,"byteStride":8,"target":34962},{"buffer":0,"byteOffset":8725180,"byteLength":432,"target":34963},{"buffer":0,"byteOffset":8725612,"byteLength":576,"byteStride":12,"target":34962},{"buffer":0,"byteOffset":8726188,"byteLength":384,"byteStride":8,"target":34962},{"buffer":0,"byteOffset":8726572,"byteLength":432,"target":34963}],"buffers":[{"byteLength":8727004,"uri":"Soft Chair colored.bin"}]}